<?xml version="1.0" encoding="utf-8"?>
<!-- Generator: Adobe Illustrator 21.0.0, SVG Export Plug-In . SVG Version: 6.00 Build 0)  -->
<svg version="1.1" id="Calque_2" xmlns="http://www.w3.org/2000/svg" xmlns:xlink="http://www.w3.org/1999/xlink" x="0px" y="0px"
	 viewBox="0 0 32 32" style="enable-background:new 0 0 32 32;" xml:space="preserve">
<style type="text/css">
	.st0{fill:#FFFFFF;}
</style>
<g id="sphere">
	<g>
		<path class="st0" d="M2,23.6L23.1,2.5c-1.2-0.7-2.6-1.2-4-1.5L0.5,19.7C0.8,21.1,1.3,22.4,2,23.6z"/>
		<path class="st0" d="M25.3,3.9L3.4,25.8c2.9,3.6,7.3,6,12.2,6c8.6,0,15.6-7,15.6-15.6C31.2,11.2,28.9,6.8,25.3,3.9z"/>
		<path class="st0" d="M16,0.6c-0.1,0-0.3,0-0.4,0C7,0.6,0,7.6,0,16.2c0,0.1,0,0.3,0,0.4L16,0.6z"/>
	</g>
</g>
</svg>
