<?xml version="1.0" encoding="utf-8"?>
<!-- Generator: Adobe Illustrator 21.0.0, SVG Export Plug-In . SVG Version: 6.00 Build 0)  -->
<svg version="1.1" id="Calque_1" xmlns="http://www.w3.org/2000/svg" xmlns:xlink="http://www.w3.org/1999/xlink" x="0px" y="0px"
	 viewBox="0 0 171 32" style="enable-background:new 0 0 171 32;" xml:space="preserve">
<style type="text/css">
	.st0{fill:#FFFFFF;}
</style>
<g id="Calque_1_1_">
	<title>logo</title>
	<path class="st0" d="M40.6,31.2V23l-1-0.1v-0.4H41l0.7-0.1c0.6-0.1,1.1-0.1,1.6-0.1c1,0,1.7,0.2,2.1,0.5s0.7,0.9,0.7,1.6
		c0,0.6-0.2,1.1-0.5,1.5s-0.7,0.7-1.4,0.8c0.4,0,0.9,0.1,1.2,0.3s0.6,0.4,0.9,0.7c0.2,0.3,0.3,0.7,0.3,1.2c0,0.9-0.3,1.6-1,2
		c-0.6,0.5-1.6,0.7-2.9,0.7c-0.3,0-0.7,0-1.3-0.1c-0.3,0-0.5-0.1-0.6-0.1h-1.4V31L40.6,31.2L40.6,31.2z M42.5,26.6h0.7
		c0.6,0,1.1-0.2,1.6-0.5c0.4-0.3,0.6-0.9,0.6-1.5s-0.2-1-0.6-1.3c-0.4-0.3-1-0.4-1.6-0.4c-0.8,0-1.4,0.1-1.7,0.1v3.6
		C41.6,26.6,42,26.6,42.5,26.6L42.5,26.6z M42.2,31.3c0.4,0.1,0.7,0.1,1,0.1c0.8,0,1.4-0.2,1.9-0.5s0.8-0.9,0.8-1.7
		c0-1.3-0.8-2-2.5-2h-0.8c-0.6,0-1,0-1.2,0v4C41.6,31.2,41.8,31.2,42.2,31.3L42.2,31.3z"/>
	<path class="st0" d="M48.1,25.6v-0.4l1.3-0.3l0.2,0.1v4.1c0,0.5,0.1,0.9,0.1,1.2c0.1,0.3,0.2,0.5,0.4,0.6s0.5,0.2,0.9,0.2
		s0.8-0.1,1.2-0.3s0.6-0.4,0.8-0.5v-4.7l-0.7-0.1v-0.4l1.4-0.3l0.2,0.1v6.3h0.7v0.3c-0.1,0.1-0.3,0.1-0.5,0.2s-0.4,0.1-0.5,0.1
		c-0.4,0-0.5-0.2-0.5-0.4v-0.5c-0.8,0.6-1.6,1-2.4,1c-0.6,0-1-0.1-1.3-0.4c-0.3-0.2-0.5-0.5-0.5-0.9s-0.1-0.9-0.1-1.6v-3.3
		L48.1,25.6L48.1,25.6z"/>
	<path class="st0" d="M56.5,30.1l0.2,0.8c0.4,0.3,0.9,0.5,1.6,0.5c0.5,0,0.9-0.1,1.2-0.3c0.3-0.2,0.4-0.5,0.4-0.9
		c0-0.2-0.1-0.4-0.2-0.6c-0.1-0.2-0.3-0.3-0.5-0.4s-0.4-0.2-0.8-0.4c-0.2-0.1-0.3-0.1-0.4-0.2c-0.6-0.3-1.1-0.5-1.4-0.9
		c-0.3-0.3-0.5-0.6-0.5-1.1c0-0.4,0.1-0.7,0.4-1c0.2-0.3,0.5-0.5,0.9-0.6c0.4-0.2,0.7-0.2,1.1-0.2s0.7,0.1,1,0.2s0.6,0.2,0.7,0.3
		v1.2h-0.4l-0.2-0.7c-0.1-0.1-0.3-0.2-0.5-0.3c-0.2-0.1-0.4-0.1-0.7-0.1c-0.5,0-0.9,0.1-1.1,0.3s-0.4,0.5-0.4,0.9
		c0,0.2,0.1,0.4,0.2,0.6s0.3,0.3,0.5,0.4s0.5,0.3,1,0.5l0.3,0.1c0.4,0.2,0.7,0.3,0.9,0.5s0.4,0.3,0.6,0.5s0.3,0.5,0.3,0.9
		c0,0.6-0.2,1.1-0.7,1.4S58.9,32,58.2,32c-0.4,0-0.7-0.1-1.1-0.1c-0.4-0.1-0.7-0.2-1-0.4v-1.2L56.5,30.1L56.5,30.1z"/>
	<path class="st0" d="M64.1,25.1v6.2l1,0.1v0.4h-2.8v-0.4l1-0.1V26l-0.9-0.3v-0.3l1.4-0.4L64.1,25.1L64.1,25.1z M63.9,22.2
		c0.1,0.1,0.2,0.3,0.2,0.4c0,0.2-0.1,0.4-0.2,0.5s-0.3,0.2-0.5,0.2s-0.3-0.1-0.4-0.2c-0.1-0.1-0.2-0.3-0.2-0.4
		c0-0.2,0.1-0.4,0.2-0.5s0.3-0.2,0.5-0.2C63.7,22,63.8,22.1,63.9,22.2z"/>
	<path class="st0" d="M67.1,31.3V26l-0.9-0.3v-0.3l1.4-0.4l0.2,0.1v0.8c0.3-0.3,0.7-0.5,1.3-0.7s1-0.3,1.4-0.3
		c0.5,0,0.9,0.1,1.1,0.3c0.3,0.2,0.5,0.5,0.6,0.9s0.2,1,0.2,1.7v3.5l1,0.1v0.4h-2.8v-0.4l0.9-0.1v-3.4c0-0.6-0.1-1-0.1-1.3
		c-0.1-0.3-0.2-0.6-0.4-0.7s-0.5-0.2-0.9-0.2c-0.3,0-0.7,0.1-1.1,0.2s-0.7,0.1-1,0.3v4.9l1,0.1v0.4h-2.7v-0.4L67.1,31.3L67.1,31.3z"
		/>
	<path class="st0" d="M79.4,25.5c0.4,0.4,0.6,1.1,0.6,1.8c0,0.3,0,0.6-0.1,1h-4.7c0,0.9,0.2,1.7,0.6,2.1c0.4,0.5,1,0.8,1.8,0.8
		c0.4,0,0.7-0.1,1.1-0.2s0.6-0.2,0.9-0.3l0.2,0.4c-0.2,0.2-0.6,0.4-1,0.5c-0.5,0.1-0.9,0.2-1.4,0.2c-1,0-1.7-0.3-2.2-0.9
		s-0.8-1.4-0.8-2.5c0-0.7,0.2-1.3,0.4-1.8s0.7-1,1.2-1.3s1.1-0.5,1.7-0.5C78.4,24.9,78.9,25.1,79.4,25.5L79.4,25.5z M76,26
		c-0.4,0.4-0.6,1-0.7,1.8h3.8c0-0.1,0-0.2,0-0.3c0-1-0.3-1.6-0.8-1.9c-0.2-0.1-0.5-0.2-0.8-0.2C76.9,25.4,76.4,25.6,76,26L76,26z"/>
	<path class="st0" d="M82,30.1l0.2,0.8c0.4,0.3,0.9,0.5,1.6,0.5c0.5,0,0.9-0.1,1.2-0.3c0.3-0.2,0.4-0.5,0.4-0.9
		c0-0.2-0.1-0.4-0.2-0.6s-0.3-0.3-0.5-0.4s-0.5-0.2-0.8-0.4c-0.2-0.1-0.3-0.1-0.4-0.2c-0.6-0.3-1.1-0.5-1.4-0.9
		c-0.3-0.3-0.5-0.6-0.5-1.1c0-0.4,0.1-0.7,0.4-1c0.2-0.3,0.5-0.5,0.9-0.6c0.4-0.2,0.7-0.2,1.1-0.2s0.7,0.1,1,0.2s0.6,0.2,0.7,0.3
		v1.2h-0.4l-0.2-0.7c-0.1-0.1-0.3-0.2-0.5-0.3c-0.2-0.1-0.4-0.1-0.7-0.1c-0.5,0-0.9,0.1-1.1,0.3s-0.4,0.5-0.4,0.9
		c0,0.2,0.1,0.4,0.2,0.6s0.3,0.3,0.5,0.4s0.5,0.3,1,0.5l0.3,0.1c0.4,0.2,0.7,0.3,0.9,0.5s0.4,0.3,0.6,0.5s0.3,0.5,0.3,0.9
		c0,0.6-0.2,1.1-0.7,1.4S84.4,32,83.7,32c-0.4,0-0.7-0.1-1.1-0.1c-0.4-0.1-0.7-0.2-1-0.4v-1.2L82,30.1L82,30.1z"/>
	<path class="st0" d="M88.3,30.1l0.2,0.8c0.4,0.3,0.9,0.5,1.6,0.5c0.5,0,0.9-0.1,1.2-0.3c0.3-0.2,0.4-0.5,0.4-0.9
		c0-0.2-0.1-0.4-0.2-0.6s-0.3-0.3-0.5-0.4s-0.5-0.2-0.8-0.4c-0.2-0.1-0.3-0.1-0.4-0.2c-0.6-0.3-1-0.5-1.4-0.9
		c-0.3-0.3-0.5-0.6-0.5-1.1c0-0.4,0.1-0.7,0.4-1c0.2-0.3,0.5-0.5,0.9-0.6c0.4-0.2,0.7-0.2,1.1-0.2s0.7,0.1,1,0.2s0.6,0.2,0.7,0.3
		v1.2h-0.4l-0.2-0.7c-0.1-0.1-0.3-0.2-0.5-0.3c-0.2-0.1-0.4-0.1-0.7-0.1c-0.5,0-0.9,0.1-1.1,0.3s-0.4,0.5-0.4,0.9
		c0,0.2,0.1,0.4,0.2,0.6s0.3,0.3,0.5,0.4s0.5,0.3,1,0.5l0.3,0.1c0.4,0.2,0.7,0.3,0.9,0.5s0.4,0.3,0.6,0.5s0.3,0.5,0.3,0.9
		c0,0.6-0.2,1.1-0.7,1.4S90.7,32,90,32c-0.4,0-0.7-0.1-1.1-0.1c-0.4-0.1-0.7-0.2-1-0.4v-1.2L88.3,30.1L88.3,30.1z"/>
	<path class="st0" d="M98.2,31.7c-0.5-0.1-0.9-0.2-1.1-0.3v-1.8h0.4l0.3,1.2c0.2,0.2,0.5,0.4,0.9,0.5s0.8,0.1,1.2,0.1
		c0.6,0,1.1-0.2,1.5-0.4s0.6-0.7,0.6-1.3c0-0.3-0.1-0.6-0.3-0.9s-0.5-0.5-0.8-0.7s-0.7-0.4-1.2-0.6c-0.5-0.3-1-0.5-1.3-0.7
		c-0.4-0.2-0.6-0.5-0.9-0.8c-0.2-0.3-0.4-0.7-0.4-1.1c0-0.5,0.2-1,0.4-1.3c0.3-0.4,0.6-0.6,1.1-0.7c0.4-0.2,0.9-0.3,1.3-0.3
		c0.5,0,1,0.1,1.4,0.2s0.7,0.2,0.9,0.3v1.6h-0.4l-0.4-1.2c-0.3-0.3-0.9-0.4-1.6-0.4c-0.3,0-0.6,0.1-1,0.2s-0.5,0.3-0.7,0.6
		c-0.2,0.3-0.3,0.6-0.3,1c0,0.3,0.1,0.6,0.3,0.9c0.2,0.3,0.4,0.5,0.7,0.6s0.7,0.4,1.2,0.6c0.6,0.3,1.1,0.5,1.4,0.7s0.7,0.5,0.9,0.8
		c0.3,0.3,0.4,0.7,0.4,1.2c0,0.9-0.3,1.4-0.9,1.9s-1.3,0.6-2.2,0.6C99.3,31.9,98.7,31.8,98.2,31.7L98.2,31.7z"/>
	<path class="st0" d="M108.5,25c0.3,0.1,0.5,0.1,0.6,0.2v1.3h-0.4l-0.3-0.7c-0.3-0.2-0.6-0.3-1.1-0.3c-0.4,0-0.8,0.1-1.2,0.3
		s-0.6,0.5-0.9,1c-0.2,0.4-0.3,0.9-0.3,1.5c0,0.7,0.1,1.3,0.3,1.7c0.2,0.5,0.5,0.8,0.9,1s0.7,0.3,1.2,0.3c0.3,0,0.6-0.1,1-0.1
		c0.4-0.1,0.6-0.2,0.8-0.3l0.2,0.4c-0.2,0.2-0.5,0.4-1,0.5S107.4,32,107,32c-0.6,0-1.1-0.2-1.6-0.4s-0.7-0.7-1-1.2
		c-0.2-0.5-0.3-1.1-0.3-1.7c0-0.7,0.2-1.4,0.4-1.9c0.3-0.5,0.7-1,1.2-1.3s1.1-0.4,1.7-0.4C107.9,24.9,108.2,24.9,108.5,25L108.5,25z
		"/>
	<path class="st0" d="M111.5,31.3v-8.5l-1-0.2v-0.4l1.7-0.2l0.2,0.1v3.7c0.3-0.3,0.7-0.5,1.2-0.7s0.9-0.3,1.2-0.3
		c0.5,0,1,0.1,1.3,0.3s0.5,0.5,0.6,1s0.2,1.1,0.2,1.9v3.1l0.9,0.1v0.4H115v-0.4l1-0.1v-2.7c0-0.7-0.1-1.3-0.1-1.7
		c-0.1-0.4-0.2-0.7-0.4-0.9s-0.5-0.3-1-0.3c-0.3,0-0.6,0.1-1.1,0.2c-0.4,0.1-0.7,0.3-1,0.5v5l1,0.1v0.4h-2.7v-0.4H111.5L111.5,31.3z
		"/>
	<path class="st0" d="M123.7,25.3c0.4,0.3,0.7,0.7,1,1.2c0.2,0.5,0.3,1.1,0.3,1.7c0,0.7-0.2,1.3-0.4,1.9s-0.6,1-1.1,1.3
		s-1,0.5-1.6,0.5c-0.7,0-1.2-0.2-1.7-0.5c-0.4-0.3-0.8-0.7-1-1.3s-0.3-1.1-0.3-1.8c0-0.7,0.2-1.3,0.4-1.8s0.7-1,1.2-1.2
		s1-0.4,1.6-0.4C122.7,24.9,123.2,25,123.7,25.3L123.7,25.3z M120.3,26.1c-0.4,0.5-0.6,1.2-0.6,2.1s0.2,1.7,0.5,2.2s0.9,0.9,1.7,0.9
		c0.7,0,1.2-0.3,1.6-0.8s0.5-1.3,0.5-2.2c0-0.9-0.2-1.6-0.5-2.1s-0.9-0.9-1.6-0.9C121.2,25.4,120.7,25.6,120.3,26.1z"/>
	<path class="st0" d="M131.1,25.3c0.4,0.3,0.7,0.7,1,1.2c0.2,0.5,0.3,1.1,0.3,1.7c0,0.7-0.2,1.3-0.4,1.9s-0.6,1-1.1,1.3
		s-1,0.5-1.6,0.5c-0.7,0-1.2-0.2-1.7-0.5c-0.4-0.3-0.8-0.7-1-1.3s-0.3-1.1-0.3-1.8c0-0.7,0.2-1.3,0.4-1.8s0.7-1,1.2-1.2
		c0.5-0.3,1-0.4,1.6-0.4C130,24.9,130.6,25,131.1,25.3L131.1,25.3z M127.7,26.1c-0.4,0.5-0.6,1.2-0.6,2.1s0.2,1.7,0.5,2.2
		s0.9,0.9,1.7,0.9c0.7,0,1.2-0.3,1.6-0.8s0.5-1.3,0.5-2.2c0-0.9-0.2-1.6-0.5-2.1s-0.9-0.9-1.6-0.9C128.6,25.4,128.1,25.6,127.7,26.1
		L127.7,26.1z"/>
	<path class="st0" d="M134.7,31.3v-8.5l-1-0.1v-0.4l1.6-0.2l0.2,0.2v9l1.1,0.1v0.4h-2.9v-0.4L134.7,31.3z"/>
	<path class="st0" d="M141.6,30.9v-7.5l-1-0.2v-0.8h1.8c0.2,0,0.5,0,0.8-0.1c0.5-0.1,1-0.1,1.3-0.1c1.1,0,1.9,0.2,2.5,0.6
		s0.9,1.1,0.9,2.1c0,0.6-0.2,1.2-0.5,1.6c-0.3,0.5-0.7,0.8-1.2,1.1c-0.5,0.3-1.1,0.4-1.7,0.4h-0.6c-0.3,0-0.5,0-0.6,0v2.7l1.6,0.2
		v0.6h-4.2v-0.6L141.6,30.9L141.6,30.9z M144.3,27.5c0.6,0,1.1-0.2,1.4-0.5s0.5-1,0.5-1.8c0-0.6-0.2-1.1-0.6-1.5
		c-0.4-0.3-0.9-0.5-1.6-0.5c-0.5,0.1-0.8,0.1-1,0.1v4.1C143.4,27.4,143.8,27.4,144.3,27.5L144.3,27.5z"/>
	<path class="st0" d="M153.4,25.5c0.4,0.4,0.6,1,0.6,1.8v3.9h0.7v0.5c-0.2,0.1-0.3,0.2-0.6,0.2c-0.2,0.1-0.5,0.1-0.7,0.1
		c-0.3,0-0.5-0.1-0.6-0.2s-0.2-0.3-0.2-0.6c-0.4,0.5-1.1,0.7-1.9,0.7c-0.4,0-0.8-0.1-1.1-0.2s-0.6-0.4-0.7-0.7
		c-0.2-0.3-0.3-0.6-0.3-1c0-0.5,0.2-1,0.6-1.3c0.4-0.3,0.9-0.6,1.5-0.7s1.2-0.2,1.8-0.2v-0.4c0-0.5-0.1-1-0.4-1.2s-0.6-0.3-1.1-0.3
		c-0.3,0-0.6,0.1-0.9,0.1c-0.3,0.1-0.6,0.2-0.9,0.3l-0.3-0.7c0.3-0.2,0.7-0.4,1.2-0.5s1-0.2,1.4-0.2
		C152.3,24.9,152.9,25.1,153.4,25.5L153.4,25.5z M150.9,28.8c-0.5,0.2-0.7,0.6-0.7,1.1c0,0.8,0.4,1.2,1.3,1.2c0.2,0,0.4-0.1,0.6-0.1
		s0.4-0.2,0.5-0.3v-2.1C151.9,28.4,151.3,28.6,150.9,28.8L150.9,28.8z"/>
	<path class="st0" d="M156.5,31v-4.5l-0.9-0.5v-0.5l1.8-0.5l0.3,0.1v1c0.1-0.3,0.4-0.5,0.8-0.7c0.4-0.3,0.8-0.4,1.1-0.4
		s0.5,0,0.6,0.1v1.4c-0.3-0.2-0.6-0.2-1.1-0.2s-0.9,0.1-1.3,0.3V31l1.6,0.2v0.6h-4v-0.6L156.5,31L156.5,31z"/>
	<path class="st0" d="M163.6,25v6l0.9,0.1v0.6h-3.3v-0.6l1-0.1v-4.5l-0.8-0.6v-0.4l1.9-0.6L163.6,25L163.6,25z M163.5,22
		c0.2,0.2,0.2,0.4,0.2,0.6c0,0.3-0.1,0.5-0.3,0.7s-0.5,0.3-0.7,0.3s-0.5-0.1-0.6-0.3c-0.2-0.2-0.3-0.4-0.3-0.6s0.1-0.5,0.3-0.7
		s0.5-0.3,0.7-0.3C163.1,21.7,163.4,21.8,163.5,22z"/>
	<path class="st0" d="M166.4,29.9l0.3,0.7c0.2,0.2,0.4,0.3,0.6,0.4s0.4,0.1,0.7,0.1c0.4,0,0.7-0.1,1-0.3c0.2-0.2,0.3-0.4,0.3-0.7
		c0-0.3-0.1-0.4-0.3-0.6s-0.5-0.3-1-0.5l-0.3-0.2c-0.6-0.3-1.1-0.6-1.4-1c-0.3-0.3-0.5-0.7-0.5-1.2c0-0.4,0.1-0.7,0.4-1
		s0.6-0.5,1-0.6c0.4-0.2,0.8-0.2,1.2-0.2s0.7,0.1,1.1,0.1c0.4,0.1,0.6,0.2,0.9,0.3v1.4h-0.7l-0.3-0.7c-0.3-0.3-0.6-0.4-1-0.4
		s-0.6,0.1-0.9,0.2c-0.2,0.2-0.3,0.4-0.3,0.6s0.1,0.4,0.2,0.5s0.3,0.3,0.5,0.4s0.5,0.3,1,0.5c0.4,0.2,0.7,0.4,1,0.5s0.5,0.4,0.6,0.6
		c0.2,0.3,0.3,0.5,0.3,0.9c0,0.7-0.3,1.2-0.8,1.6s-1.2,0.5-2,0.5c-0.4,0-0.7-0.1-1.2-0.2c-0.4-0.1-0.7-0.2-1-0.4v-1.4L166.4,29.9
		L166.4,29.9z"/>
</g>
<g id="sphere">
	<g>
		<path class="st0" d="M2,23.6L23.1,2.5c-1.2-0.7-2.6-1.2-4-1.5L0.5,19.7C0.8,21.1,1.3,22.4,2,23.6z"/>
		<path class="st0" d="M25.3,3.9L3.4,25.8c2.9,3.6,7.3,6,12.2,6c8.6,0,15.6-7,15.6-15.6C31.2,11.2,28.9,6.8,25.3,3.9z"/>
		<path class="st0" d="M16,0.6c-0.1,0-0.3,0-0.4,0C7,0.6,0,7.6,0,16.2c0,0.1,0,0.3,0,0.4L16,0.6z"/>
	</g>
</g>
<g id="Calque_3">
	<g>
		<path class="st0" d="M41.5,3.6c0-0.5,0-0.9-0.1-1.2S41.2,1.9,41,1.7s-0.4-0.3-0.7-0.3c-0.3-0.1-0.6-0.1-1.1-0.1
			c-0.1,0-0.2,0-0.2-0.1c0-0.1,0-0.2,0-0.3s0-0.2,0.1-0.3s0.1-0.1,0.2-0.1c0.1,0,0.4,0,0.7,0s0.7,0,1,0c0.4,0,0.8,0,1.2,0
			s0.8,0,1.1,0s0.6,0.1,0.8,0.1s0.4,0.1,0.4,0.2l5.1,11.9l0.1,0.1c0,0,0.1,0,0.1-0.1l5-11.9c0-0.1,0.2-0.1,0.6-0.2
			c0.4,0,0.9-0.1,1.4-0.1s1.1,0,1.6-0.1c0.6,0,1,0,1.3,0c0.1,0,0.2,0,0.2,0.1S60,0.7,60,0.8s0,0.2-0.1,0.3s0.1,0.2,0,0.2
			c-0.6,0.1-1,0.2-1.3,0.3c-0.4,0-0.6,0.2-0.7,0.4c-0.2,0.2-0.2,0.6-0.3,1c0,0.4,0,1.1,0,1.8V14c0,0.5,0,1,0.1,1.3s0.2,0.5,0.4,0.7
			c0.2,0.2,0.4,0.3,0.7,0.4s0.7,0.1,1.2,0.2c0.1,0,0.2,0.1,0.2,0.2c0.1,0.1,0.1,0.2,0.1,0.3c0,0.1,0,0.2-0.1,0.3
			c-0.1,0.1-0.1,0.1-0.3,0.1c-0.7,0-1.3,0-1.9-0.1s-1.2-0.1-1.8-0.1s-1.3,0-2,0.1s-1.3,0.1-1.8,0.1c-0.1,0-0.2,0-0.2-0.1
			c-0.1-0.1-0.1-0.2-0.1-0.3c0-0.1,0-0.2,0.1-0.3c0.1-0.1,0.1-0.1,0.2-0.2c0.5,0,0.9-0.1,1.2-0.2s0.5-0.2,0.7-0.4
			c0.2-0.2,0.3-0.4,0.4-0.7c0.1-0.3,0.1-0.7,0.1-1.3V4.8c0-0.1-0.1-0.2-0.2-0.2c-0.1,0-0.2,0.1-0.3,0.2l-3.6,8.5
			c-0.3,0.6-0.5,1.2-0.7,1.9s-0.5,1.4-0.7,2.1l-0.1,0.1c-0.1,0-0.2,0-0.2,0c-0.1,0-0.2,0-0.2,0c-0.1,0-0.1-0.1-0.1-0.1L43.1,4.7
			c0-0.1-0.1-0.1-0.2-0.2c-0.1,0-0.2,0-0.2,0.2V14c0,0.6,0.1,1.1,0.2,1.4c0.1,0.3,0.2,0.6,0.4,0.8c0.2,0.2,0.4,0.3,0.7,0.3
			c0.3,0.1,0.6,0.1,1,0.2c0.1,0,0.1,0.1,0.2,0.1c0,0.1,0.1,0.2,0.1,0.3c0,0.1,0,0.2-0.1,0.3c0,0.1-0.1,0.1-0.2,0.1
			c-0.4,0-0.8,0-1.2-0.1s-1-0.1-1.6-0.1s-1.2,0-1.7,0.1s-0.9,0.1-1.2,0.1c-0.1,0-0.1,0-0.2-0.1C39,17.3,39,17.2,39,17.1
			s0-0.2,0.1-0.3s0.1-0.1,0.2-0.1c0.4,0,0.8-0.1,1.1-0.2s0.5-0.2,0.7-0.3c0.2-0.2,0.3-0.4,0.4-0.8c0.1-0.3,0.1-0.8,0.1-1.4L41.5,3.6
			L41.5,3.6z"/>
		<path class="st0" d="M64.3,4.7c0-0.4,0-0.7,0-1.1s-0.1-0.7-0.2-1S63.9,2,63.7,1.8S63.3,1.4,63,1.4c-0.2-0.1-0.4-0.1-0.6-0.1
			c-0.2,0-0.4-0.1-0.6-0.1c-0.1,0-0.2,0-0.2-0.1s-0.1-0.2-0.1-0.3s0-0.2,0.1-0.3c0-0.1,0.1-0.1,0.2-0.1c0.3,0,0.6,0,0.8,0
			s0.5,0,0.7,0s0.5,0,0.7,0c0.3,0,0.5,0,0.8,0c0.2,0,0.5,0,0.8,0s0.6,0,0.9,0s0.6,0,1,0c0.3,0,0.6,0,0.8,0c0.4,0,0.9,0,1.4,0.1
			c0.5,0,0.9,0.1,1.4,0.2S72,1,72.4,1.2C73,1.4,73.3,1.7,73.6,2c0.3,0.3,0.5,0.7,0.7,1.1s0.3,0.9,0.3,1.5c0,0.5-0.1,1-0.2,1.4
			c-0.2,0.4-0.4,0.7-0.7,1c-0.3,0.3-0.6,0.5-1,0.8c-0.3,0-0.7,0.2-1.1,0.4c-0.1,0-0.1,0.1-0.1,0.2c0,0.1,0,0.1,0.1,0.1
			c1.3,0.4,2.3,0.9,3.1,1.6c0.7,0.7,1.1,1.7,1.1,3c0,0.9-0.2,1.6-0.5,2.1c-0.3,0.6-0.7,1-1.2,1.3s-1.1,0.6-1.8,0.7s-1.3,0.2-2,0.2
			c-0.3,0-0.7,0-1.1,0s-0.8,0-1.2,0c-0.4,0-0.8,0-1.3,0c-0.4,0-0.8,0-1.2,0c-0.4,0-0.7,0-1,0s-0.5,0-0.8,0s-0.5,0-0.8,0.1
			c-0.3,0-0.6,0.1-0.9,0.1c-0.1,0-0.2,0-0.2-0.1c-0.1-0.1-0.1-0.2-0.1-0.3c0-0.1,0-0.2,0.1-0.3c0-0.1,0.1-0.1,0.2-0.1
			c0.4,0,0.8-0.1,1-0.2c0.3-0.1,0.5-0.2,0.7-0.4c0.2-0.2,0.3-0.4,0.4-0.7s0.1-0.6,0.1-1.1V4.7H64.3z M67,7.4c0,0.2,0,0.4,0.1,0.5
			S67.4,8,67.6,8h0.5c0.5,0,1,0,1.5-0.1s0.9-0.3,1.2-0.5c0.3-0.2,0.6-0.6,0.8-1c0.2-0.4,0.3-1,0.3-1.7c0-0.6-0.1-1.1-0.2-1.5
			s-0.4-0.7-0.6-1c-0.3-0.3-0.6-0.4-1-0.6c-0.4-0.1-0.9-0.2-1.4-0.2h-0.9c-0.2,0-0.3,0-0.4,0.1c-0.1,0-0.1,0.1-0.2,0.2
			c0,0.1-0.1,0.2-0.1,0.4c0,0.1,0,0.3,0,0.5v4.8H67z M67,12.4c0,0.9,0,1.6,0.1,2.1s0.2,0.9,0.3,1.2c0.2,0.3,0.4,0.4,0.8,0.5
			c0.3,0.1,0.8,0.1,1.3,0.1c1.2,0,2-0.3,2.4-0.8c0.5-0.5,0.7-1.4,0.7-2.5c0-0.8-0.1-1.5-0.3-2c-0.2-0.5-0.5-0.9-0.9-1.2
			C71,9.5,70.6,9.3,70,9.2C69.5,9.1,68.9,9,68.3,9h-0.5c-0.4,0-0.6,0.1-0.7,0.2c0,0.2-0.1,0.4-0.1,0.9V12.4z"/>
		<path class="st0" d="M81.9,11.4c-0.2,0-0.4,0-0.5,0.1s-0.2,0.2-0.3,0.4l-1.1,3c-0.1,0.3-0.1,0.5-0.1,0.6c0,0.2,0.1,0.4,0.2,0.5
			s0.3,0.3,0.4,0.4c0.2,0.1,0.4,0.2,0.6,0.2s0.5,0.1,0.7,0.1c0.1,0,0.2,0,0.3,0.1c0,0.1,0.1,0.2,0.1,0.3c0,0.1,0,0.2-0.1,0.3
			c0,0.1-0.1,0.1-0.3,0.1c-0.2,0-0.4,0-0.6,0s-0.5,0-0.7-0.1c-0.2,0-0.5,0-0.8-0.1c-0.3,0-0.5,0-0.7,0c-0.4,0-0.8,0-1.3,0.1
			c-0.4,0.1-0.8,0.1-1.3,0.1c-0.1,0-0.2,0-0.2-0.1c-0.1-0.1-0.1-0.2-0.1-0.3c0-0.1,0-0.2,0.1-0.2c0-0.1,0.1-0.1,0.2-0.1h0.4
			c0.3-0.1,0.5-0.1,0.7-0.2s0.4-0.2,0.6-0.4c0.2-0.2,0.3-0.4,0.5-0.6c0.2-0.3,0.3-0.6,0.5-1.1l5.7-14.2c0-0.1,0.2-0.2,0.4-0.2
			c0.2,0,0.4,0.1,0.5,0.2c0.4,1.1,0.9,2.2,1.3,3.4c0.5,1.2,1,2.5,1.5,3.7c0.5,1.3,1,2.5,1.5,3.8c0.5,1.2,1,2.4,1.4,3.5
			c0.2,0.5,0.4,0.9,0.6,1.1c0.2,0.3,0.4,0.5,0.6,0.6s0.4,0.2,0.6,0.3c0.2,0,0.4,0.1,0.6,0.1c0.1,0,0.2,0.1,0.2,0.2s0.1,0.2,0.1,0.3
			c0,0.1,0,0.2-0.1,0.3s-0.1,0.1-0.2,0.1c-0.3,0-0.5,0-0.8,0s-0.5,0-0.8-0.1c-0.2,0-0.5-0.1-0.8-0.1s-0.6,0-0.9,0
			c-0.7,0-1.4,0-2,0.1s-1.2,0.1-1.8,0.1c-0.1,0-0.2,0-0.3-0.1c-0.1-0.1-0.1-0.2-0.1-0.3c0-0.1,0-0.2,0.1-0.3c0-0.1,0.1-0.1,0.3-0.1
			c0.6-0.1,1-0.2,1.2-0.3c0.3-0.1,0.4-0.4,0.4-0.8c0-0.1,0-0.2,0-0.4s-0.1-0.4-0.2-0.6c-0.1-0.3-0.2-0.6-0.3-1s-0.4-0.9-0.6-1.6
			c-0.1-0.2-0.2-0.4-0.3-0.4c-0.1-0.1-0.4-0.1-0.7-0.1h-4.3V11.4z M86.2,10.4c0.2,0,0.4,0,0.5-0.1s0.1-0.2,0-0.4l-2.2-5.8
			C84.5,4,84.4,4,84.3,4s-0.2,0-0.2,0.1l-2.3,5.8c-0.1,0.2-0.1,0.4,0,0.4c0.1,0.1,0.2,0.1,0.4,0.1H86.2z"/>
		<path class="st0" d="M108.9,0.5c0.1,0,0.3,0,0.4,0s0.2,0.2,0.1,0.4c0,0.2,0,0.4,0,0.6s0,0.4,0,0.6v0.4c0,0.6,0,1.2,0.1,1.7
			c0,0.1,0,0.1-0.1,0.2c-0.1,0-0.2,0.1-0.3,0.1c-0.1,0-0.2,0-0.3-0.1c-0.1,0-0.1-0.1-0.2-0.2c-0.1-0.7-0.2-1.2-0.3-1.5
			S108,2.2,107.7,2c-0.2-0.2-0.5-0.3-0.8-0.3c-0.4,0-0.8-0.1-1.4-0.1H104c-0.4,0-0.8,0-1,0c-0.3,0-0.5,0.1-0.6,0.2s-0.2,0.3-0.3,0.5
			c0,0.2-0.1,0.6-0.1,1v4.6c0,0.2,0,0.4,0.1,0.4c0.1,0.1,0.2,0.1,0.2,0.1c0.8,0,1.4,0,1.8-0.1s0.8-0.2,1-0.4s0.4-0.4,0.5-0.7
			c0.1-0.3,0.1-0.7,0.2-1.1c0-0.1,0.1-0.2,0.2-0.2s0.2-0.1,0.3-0.1c0.1,0,0.2,0,0.3,0.1c0.1,0,0.1,0.1,0.1,0.2c0,0.3,0,0.5,0,0.7
			s0,0.4-0.1,0.6c0,0.2,0,0.4-0.1,0.7c0,0.2,0,0.5,0,0.8c0,0.5,0,1,0.1,1.4c0,0.2,0.1,0.4,0.1,0.7c0,0.2,0,0.5,0,0.8
			c0,0.1,0,0.2-0.1,0.2s-0.1,0.1-0.2,0.1s-0.2,0-0.3-0.1c-0.1,0-0.2-0.1-0.2-0.2c0-0.5-0.1-0.9-0.2-1.2s-0.2-0.5-0.5-0.7
			c-0.2-0.2-0.6-0.3-1-0.3c-0.4-0.1-1-0.1-1.8-0.1c-0.1,0-0.2,0-0.2,0.1c-0.2,0-0.2,0.1-0.2,0.3v4c0,0.6,0,1,0.1,1.4
			c0.1,0.3,0.3,0.6,0.5,0.8s0.5,0.3,0.9,0.4s0.8,0.1,1.4,0.2c0.1,0,0.2,0,0.3,0.1c0.1,0.1,0.1,0.2,0.1,0.3c0,0.1,0,0.2-0.1,0.3
			c-0.1,0.1-0.1,0.1-0.3,0.1c-0.4,0-0.9,0-1.2,0c-0.4,0-0.7,0-1.1-0.1s-0.6-0.1-1-0.1s-0.6,0-0.9,0c-0.6,0-1.3,0-1.9,0.1
			s-1.2,0.1-1.8,0.1c-0.1,0-0.2,0-0.2-0.1c-0.1-0.1-0.1-0.2-0.1-0.3c0-0.1,0-0.2,0.1-0.3s0.1-0.1,0.2-0.1c0.5,0,0.9-0.1,1.2-0.2
			c0.3-0.1,0.5-0.2,0.7-0.4c0.2-0.2,0.3-0.4,0.3-0.7c0.1-0.3,0.1-0.7,0.1-1.2V4.7c0-0.4,0-0.7,0-1.1s-0.1-0.7-0.2-1S98.9,2,98.7,1.8
			c-0.2-0.2-0.4-0.4-0.7-0.5c-0.2,0-0.4-0.1-0.6-0.1S97,1.1,96.8,1.1c-0.1,0-0.2,0-0.2-0.1s-0.1-0.2-0.1-0.3s0-0.2,0.1-0.3
			c0-0.1,0.1-0.1,0.2-0.1c0.3,0,0.6,0,0.8,0c0.2,0,0.5,0,0.7,0s0.5,0,0.7,0c0.3,0,0.5,0,0.8,0h9.1V0.5z"/>
		<path class="st0" d="M119.7,0c0.7,0,1.4,0.1,2.1,0.3c0.6,0.2,1.3,0.4,1.9,0.7c0.2,0.1,0.3,0.2,0.5,0.2c0.2,0.1,0.3,0.1,0.4,0.1
			c0.3,0,0.4-0.2,0.5-0.5c0-0.1,0.1-0.1,0.2-0.1c0.1,0,0.2,0,0.3,0s0.2,0,0.2,0.1c0.1,0,0.1,0.1,0.1,0.2c-0.1,0.3-0.1,0.5-0.1,0.8
			s0,0.6,0,0.9c0,0.5,0,0.9,0.1,1.4s0.1,1,0.2,1.4c0,0.1,0,0.1-0.1,0.2c-0.1,0-0.2,0.1-0.3,0.1s-0.2,0-0.3,0s-0.2-0.1-0.2-0.2
			c-0.4-1.5-1.1-2.6-2-3.3c-0.9-0.7-2.1-1.1-3.5-1.1c-1.1,0-2,0.2-2.7,0.7s-1.3,1.1-1.7,1.8c-0.4,0.7-0.7,1.5-0.9,2.4
			c-0.2,0.9-0.3,1.8-0.3,2.6c0,0.9,0.1,1.9,0.3,2.8c0.2,0.9,0.5,1.8,1,2.5c0.5,0.8,1,1.4,1.8,1.8c0.7,0.5,1.6,0.7,2.6,0.7
			c0.8,0,1.5-0.1,2.1-0.2s1.2-0.4,1.6-0.8c0.5-0.5,1-1.1,1.3-1.7c0.3-0.7,0.5-1.4,0.7-2.3c0-0.1,0.1-0.2,0.2-0.2c0.1,0,0.2,0,0.3,0
			s0.2,0.1,0.3,0.1c0.1,0.1,0.1,0.1,0.1,0.2c0,0.3-0.1,0.7-0.1,1s0,0.7,0,1c0,0.6,0,1.1,0.1,1.7c0,0.6,0.1,1.2,0.1,1.9
			c0,0.1,0,0.2-0.1,0.2s-0.1,0.1-0.2,0.1c-0.1,0-0.2,0-0.3,0s-0.1-0.1-0.2-0.2c0-0.2-0.1-0.3-0.2-0.4s-0.2-0.3-0.3-0.3
			c-0.1-0.1-0.3-0.1-0.5-0.1s-0.4,0.1-0.6,0.2c-0.4,0.2-0.7,0.4-1.1,0.5c-0.3,0.1-0.7,0.3-1,0.3c-0.4,0.1-0.7,0.1-1.1,0.2
			c-0.4,0-0.8,0-1.2,0c-3,0-5.1-0.7-6.6-2.2c-1.4-1.5-2.1-3.6-2.1-6.3c0-1.5,0.2-2.8,0.7-3.9s1.1-2.1,1.9-2.8s1.7-1.3,2.8-1.7
			C117.3,0.2,118.4,0,119.7,0z"/>
		<path class="st0" d="M130.5,3.8c0,0.5,0.1,0.9,0.3,1.3c0.2,0.3,0.5,0.6,0.8,0.9c0.3,0.2,0.7,0.4,1.1,0.6c0.4,0.2,0.8,0.3,1.1,0.5
			c0.6,0.3,1.3,0.6,1.9,1c0.6,0.3,1.2,0.7,1.7,1.2c0.5,0.4,0.9,1,1.2,1.6s0.5,1.3,0.5,2.2s-0.2,1.6-0.5,2.2
			c-0.4,0.6-0.8,1.1-1.4,1.5c-0.6,0.4-1.2,0.6-1.9,0.8c-0.7,0.2-1.4,0.3-2.1,0.3c-0.5,0-1-0.1-1.6-0.2s-1.1-0.4-1.6-0.6
			c-0.1,0-0.2-0.1-0.2-0.1c-0.1,0-0.2,0-0.3,0s-0.3,0-0.4,0.1c-0.1,0.1-0.3,0.3-0.3,0.5c0,0.1-0.1,0.2-0.2,0.2c-0.1,0-0.2,0-0.3,0
			s-0.2,0-0.2-0.1c-0.1,0-0.1-0.1-0.1-0.2c0-0.4,0.1-0.8,0.1-1.2c0-0.4,0.1-0.9,0.1-1.3c0-0.4,0-0.9,0-1.3c0-0.4-0.1-0.9-0.1-1.4
			c0-0.1,0-0.2,0.1-0.3s0.2-0.1,0.3-0.1s0.2,0,0.3,0.1c0.1,0,0.1,0.1,0.2,0.2c0.1,0.7,0.3,1.3,0.6,1.9c0.3,0.6,0.6,1,1,1.4
			s0.9,0.7,1.4,0.9c0.5,0.2,1.1,0.3,1.7,0.3c0.4,0,0.9-0.1,1.3-0.2c0.4-0.1,0.8-0.3,1.1-0.5c0.3-0.2,0.6-0.5,0.8-0.9
			c0.2-0.3,0.3-0.8,0.3-1.2c0-0.6-0.1-1.1-0.4-1.6c-0.3-0.4-0.6-0.8-1-1.2c-0.4-0.3-0.8-0.6-1.3-0.8s-0.9-0.5-1.3-0.7
			c-0.6-0.3-1.1-0.5-1.7-0.8c-0.5-0.3-1-0.6-1.5-1c-0.4-0.4-0.8-0.8-1-1.3c-0.3-0.5-0.4-1.2-0.4-2s0.2-1.5,0.5-2s0.8-1,1.3-1.3
			s1.1-0.6,1.8-0.7c0.7-0.2,1.4-0.2,2.1-0.2c0.5,0,0.9,0,1.2,0.1s0.7,0.2,1.1,0.3c0.2,0.1,0.4,0.1,0.5,0.2c0.1,0,0.3,0.1,0.4,0.1
			c0.2,0,0.3-0.1,0.4-0.2c0-0.1,0.1-0.1,0.2-0.1c0.1,0,0.2,0,0.3,0s0.2,0,0.2,0.1c0.1,0,0.1,0.1,0.1,0.1c-0.1,0.3-0.1,0.6-0.2,0.9
			c0,0.3,0,0.6,0,0.9c0,0.4,0,0.8,0.1,1.2s0.1,0.8,0.1,1.2c0,0,0,0.1-0.1,0.1s-0.1,0.1-0.2,0.1c-0.1,0-0.2,0-0.3,0s-0.1-0.1-0.2-0.2
			c-0.2-0.7-0.3-1.3-0.5-1.8s-0.5-0.8-0.8-1.1s-0.7-0.4-1.1-0.5c-0.4-0.1-0.9-0.2-1.5-0.2c-0.4,0-0.8,0.1-1.2,0.2s-0.7,0.3-1,0.5
			s-0.5,0.5-0.7,0.8C130.6,3,130.5,3.4,130.5,3.8z"/>
	</g>
</g>
</svg>
